<?xml version="1.0" encoding="UTF-8" standalone="no"?>
<svg
   xmlns:dc="http://purl.org/dc/elements/1.1/"
   xmlns:cc="http://creativecommons.org/ns#"
   xmlns:rdf="http://www.w3.org/1999/02/22-rdf-syntax-ns#"
   xmlns:svg="http://www.w3.org/2000/svg"
   xmlns="http://www.w3.org/2000/svg"
   xmlns:sodipodi="http://sodipodi.sourceforge.net/DTD/sodipodi-0.dtd"
   xmlns:inkscape="http://www.inkscape.org/namespaces/inkscape"
   width="110"
   height="110"
   viewBox="0 0 29.104166 29.104167"
   version="1.1"
   id="svg995"
   inkscape:version="0.92.3 (2405546, 2018-03-11)"
   sodipodi:docname="delta.svg">
  <defs
     id="defs989" />
  <sodipodi:namedview
     id="base"
     pagecolor="#ffffff"
     bordercolor="#666666"
     borderopacity="1.0"
     inkscape:pageopacity="0.0"
     inkscape:pageshadow="2"
     inkscape:zoom="1.4"
     inkscape:cx="-38.247734"
     inkscape:cy="151.95624"
     inkscape:document-units="px"
     inkscape:current-layer="layer1"
     inkscape:document-rotation="0"
     showgrid="false"
     units="px"
     inkscape:showpageshadow="false"
     inkscape:window-width="1272"
     inkscape:window-height="856"
     inkscape:window-x="640"
     inkscape:window-y="159"
     inkscape:window-maximized="0" />
  <metadata
     id="metadata992">
    <rdf:RDF>
      <cc:Work
         rdf:about="">
        <dc:format>image/svg+xml</dc:format>
        <dc:type
           rdf:resource="http://purl.org/dc/dcmitype/StillImage" />
        <dc:title />
      </cc:Work>
    </rdf:RDF>
  </metadata>
  <g
     inkscape:label="Capa 1"
     inkscape:groupmode="layer"
     id="layer1">
    <rect
       style="fill:#009688;fill-opacity:1;stroke:none;stroke-width:0.26458305;stroke-linecap:round;stroke-linejoin:round;stroke-opacity:0.05103102"
       id="rect939"
       width="29.104164"
       height="29.104166"
       x="1.4589233e-06"
       y="2.3403321e-07" />
    <path
       inkscape:connector-curvature="0"
       d="M 23.607708,23.607708 H 20.323939 V 19.161989 H 8.780226 v 4.445719 H 5.496457 v -9.055626 q 0,-1.982891 0.682013,-3.650036 Q 6.860484,9.2349018 8.072953,8.0350629 9.285421,6.8352241 10.939936,6.1658403 12.59445,5.4964566 14.552082,5.4964566 h 7.401111 q 0.341007,0 0.644124,0.1262988 0.303118,0.1262988 0.530455,0.3536367 0.227338,0.2273379 0.353637,0.5304551 0.126299,0.3031171 0.126299,0.644124 z M 8.780226,15.87822 H 20.323939 V 8.780226 h -5.771857 q -0.151558,0 -0.644124,0.05052 -0.479935,0.03789 -1.124059,0.214708 -0.631494,0.1768184 -1.338768,0.543085 -0.707273,0.3662666 -1.300878,1.010391 -0.593604,0.644124 -0.985131,1.616625 -0.378896,0.95987 -0.378896,2.336527 z"
       style="font-style:normal;font-variant:normal;font-weight:normal;font-stretch:normal;font-size:medium;line-height:1.25;font-family:Audiowide;-inkscape-font-specification:Audiowide;letter-spacing:0px;word-spacing:0px;fill:#fcfcfc;fill-opacity:1;stroke:none;stroke-width:0.26458201"
       id="path928" />
  </g>
</svg>
