<?xml version="1.0" encoding="UTF-8" standalone="no"?>
<svg
   xmlns:dc="http://purl.org/dc/elements/1.1/"
   xmlns:cc="http://creativecommons.org/ns#"
   xmlns:rdf="http://www.w3.org/1999/02/22-rdf-syntax-ns#"
   xmlns:svg="http://www.w3.org/2000/svg"
   xmlns="http://www.w3.org/2000/svg"
   xmlns:xlink="http://www.w3.org/1999/xlink"
   xmlns:sodipodi="http://sodipodi.sourceforge.net/DTD/sodipodi-0.dtd"
   xmlns:inkscape="http://www.inkscape.org/namespaces/inkscape"
   sodipodi:docname="foxtrot.svg"
   inkscape:version="1.0 (4035a4f, 2020-05-01)"
   id="svg995"
   version="1.1"
   viewBox="0 0 29.104166 29.104167"
   height="110"
   width="110">
  <defs
     id="defs989">
    <linearGradient
       gradientTransform="matrix(2.3663487,0,0,2.3663487,115.33629,-672.96018)"
       inkscape:collect="always"
       xlink:href="#linearGradient7951"
       id="linearGradient7953"
       x1="2.4639363"
       y1="288.08682"
       x2="5.3247395"
       y2="290.94763"
       gradientUnits="userSpaceOnUse" />
    <linearGradient
       inkscape:collect="always"
       id="linearGradient7951">
      <stop
         style="stop-color:#4aa4e2;stop-opacity:1"
         offset="0"
         id="stop7947" />
      <stop
         style="stop-color:#3498db;stop-opacity:1"
         offset="1"
         id="stop7949" />
    </linearGradient>
  </defs>
  <sodipodi:namedview
     inkscape:window-maximized="0"
     inkscape:window-y="159"
     inkscape:window-x="640"
     inkscape:window-height="856"
     inkscape:window-width="1272"
     inkscape:showpageshadow="false"
     units="px"
     showgrid="false"
     inkscape:document-rotation="0"
     inkscape:current-layer="layer1"
     inkscape:document-units="px"
     inkscape:cy="151.95624"
     inkscape:cx="-38.247734"
     inkscape:zoom="1.4"
     inkscape:pageshadow="2"
     inkscape:pageopacity="0.0"
     borderopacity="1.0"
     bordercolor="#666666"
     pagecolor="#ffffff"
     id="base" />
  <metadata
     id="metadata992">
    <rdf:RDF>
      <cc:Work
         rdf:about="">
        <dc:format>image/svg+xml</dc:format>
        <dc:type
           rdf:resource="http://purl.org/dc/dcmitype/StillImage" />
        <dc:title />
      </cc:Work>
    </rdf:RDF>
  </metadata>
  <g
     id="layer1"
     inkscape:groupmode="layer"
     inkscape:label="Capa 1">
    <g
       transform="translate(-31.750001,-17.197916)"
       id="g862">
      <rect
         y="17.197916"
         x="31.750002"
         height="29.104166"
         width="29.104164"
         id="rect939-3"
         style="fill:#fcfcfc;fill-opacity:1;stroke:none;stroke-width:0.264583;stroke-linecap:round;stroke-linejoin:round;stroke-opacity:0.051031" />
      <g
         transform="translate(-84.376489,17.11044)"
         id="g1063">
        <path
           inkscape:connector-curvature="0"
           style="fill:#31363b;fill-opacity:0.12549;fill-rule:evenodd;stroke-width:0.264584"
           d="m 137.21193,7.2680872 c 2.53268,0 4.57164,2.0389648 4.57164,4.5716448 v 4.571667 c 0,2.378322 -1.79807,4.321308 -4.11449,4.549305 v 3.679673 l -3.65731,-3.657334 h -5.02882 c -2.5327,0 -4.57164,-2.038965 -4.57164,-4.571644 v -4.571667 c 0,-2.53268 2.03894,-4.5716448 4.57164,-4.5716448 z"
           id="path7847-7-6" />
        <path
           inkscape:connector-curvature="0"
           style="fill:#f39c1f;fill-opacity:1;fill-rule:evenodd;stroke-width:0.264584"
           d="m 136.16335,6.6602195 c 2.53268,0 4.57164,2.0389645 4.57164,4.5716435 v 4.571668 c 0,2.378323 -1.79807,4.321308 -4.11448,4.549306 v 3.679672 l -3.65732,-3.657334 h -5.02882 c -2.5327,0 -4.57164,-2.038964 -4.57164,-4.571644 v -4.571668 c 0,-2.532679 2.03894,-4.5716435 4.57164,-4.5716435 z"
           id="path7847-7" />
        <path
           inkscape:connector-curvature="0"
           style="fill:url(#linearGradient7953);fill-opacity:1;fill-rule:evenodd;stroke-width:0.264584"
           d="m 124.14521,4.6387425 c -2.5327,0 -4.57164,2.0389643 -4.57164,4.5716435 v 4.571668 c 0,2.378323 1.79807,4.321308 4.11448,4.549306 v 3.679672 l 3.65731,-3.657334 h 5.02883 c 2.53268,0 4.57164,-2.038964 4.57164,-4.571644 V 9.210386 c 0,-2.5326792 -2.03896,-4.5716435 -4.57164,-4.5716435 z"
           id="path7847" />
        <path
           style="fill:#31363b;fill-opacity:0.12549;fill-rule:evenodd;stroke-width:0.264584"
           d="m 136.17225,6.6605981 c 0.4886,0.7277942 0.77285,1.6046449 0.77285,2.5508529 v 4.570982 c 0,2.532679 -2.0383,4.572211 -4.57101,4.572211 h -5.02955 l -1.51021,1.511435 c 0.37668,0.194277 0.78653,0.331147 1.2155,0.415767 l 1.24853,-1.248509 h 5.02956 c 2.53268,0 4.57098,-2.039532 4.57098,-4.572212 V 9.89012 c 0,-1.25258 -0.49913,-2.3833866 -1.30965,-3.2075148 -0.13749,-0.011832 -0.27628,-0.021297 -0.417,-0.021297 z"
           id="path7847-7-5"
           inkscape:connector-curvature="0" />
      </g>
    </g>
  </g>
</svg>
