<?xml version="1.0" encoding="UTF-8" standalone="no"?>
<svg
   xmlns:dc="http://purl.org/dc/elements/1.1/"
   xmlns:cc="http://creativecommons.org/ns#"
   xmlns:rdf="http://www.w3.org/1999/02/22-rdf-syntax-ns#"
   xmlns:svg="http://www.w3.org/2000/svg"
   xmlns="http://www.w3.org/2000/svg"
   xmlns:sodipodi="http://sodipodi.sourceforge.net/DTD/sodipodi-0.dtd"
   xmlns:inkscape="http://www.inkscape.org/namespaces/inkscape"
   sodipodi:docname="joliet.svg"
   inkscape:version="1.0 (4035a4f, 2020-05-01)"
   id="svg995"
   version="1.1"
   viewBox="0 0 29.104166 29.104167"
   height="110"
   width="110">
  <defs
     id="defs989" />
  <sodipodi:namedview
     inkscape:window-maximized="0"
     inkscape:window-y="159"
     inkscape:window-x="640"
     inkscape:window-height="856"
     inkscape:window-width="1272"
     inkscape:showpageshadow="false"
     units="px"
     showgrid="false"
     inkscape:document-rotation="0"
     inkscape:current-layer="layer1"
     inkscape:document-units="px"
     inkscape:cy="151.95624"
     inkscape:cx="-38.247734"
     inkscape:zoom="1.4"
     inkscape:pageshadow="2"
     inkscape:pageopacity="0.0"
     borderopacity="1.0"
     bordercolor="#666666"
     pagecolor="#ffffff"
     id="base" />
  <metadata
     id="metadata992">
    <rdf:RDF>
      <cc:Work
         rdf:about="">
        <dc:format>image/svg+xml</dc:format>
        <dc:type
           rdf:resource="http://purl.org/dc/dcmitype/StillImage" />
        <dc:title />
      </cc:Work>
    </rdf:RDF>
  </metadata>
  <g
     id="layer1"
     inkscape:groupmode="layer"
     inkscape:label="Capa 1">
    <g
       transform="translate(-30.427083,6.2366073)"
       id="g852">
      <rect
         y="-6.2366071"
         x="30.427084"
         height="29.104166"
         width="29.104164"
         id="rect939-36"
         style="fill:#009688;fill-opacity:1;stroke:none;stroke-width:0.264583;stroke-linecap:round;stroke-linejoin:round;stroke-opacity:0.051031" />
      <path
         inkscape:export-filename="/home/quique/rect815.png"
         inkscape:export-ydpi="96"
         inkscape:export-xdpi="96"
         inkscape:connector-curvature="0"
         id="path2"
         d="m 39.532941,11.818417 c -0.16892,0 -0.30573,0.136883 -0.30573,0.30572 v 2.43e-4 2.031093 4.76e-4 c 0,0.168769 0.13681,0.305812 0.30573,0.305812 0.16891,0 0.30599,-0.137043 0.30599,-0.305812 0,-2.42e-4 -2.91e-4,-2.42e-4 -2.91e-4,-4.76e-4 v -2.031052 c 0,-2.43e-4 2.91e-4,-2.43e-4 2.91e-4,-2.43e-4 0,-0.168839 -0.13708,-0.305722 -0.30599,-0.305722 z m 14.27454,0.610823 c -0.0881,9.53e-4 -0.1752,0.03947 -0.23486,0.11333 -0.10629,0.131326 -0.0859,0.32392 0.0452,0.430278 l 1.16564,0.943612 -1.27648,1.033261 c -0.13132,0.106143 -0.15168,0.298916 -0.0453,0.430099 0.0605,0.07482 0.14873,0.11333 0.23789,0.11333 0.0676,0 0.13551,-0.0222 0.19221,-0.06793 l 1.43345,-1.160574 1.43327,1.160574 c 0.0566,0.04579 0.12472,0.06793 0.192199,0.06793 0.0892,0 0.17757,-0.03864 0.23798,-0.11333 0.106212,-0.131183 0.0858,-0.323956 -0.0453,-0.430099 l -1.27657,-1.033261 1.16564,-0.943612 c 0.131239,-0.106358 0.151519,-0.298952 0.0452,-0.430278 -0.106069,-0.131178 -0.298679,-0.151486 -0.429999,-0.04513 l -1.32243,1.070564 -1.3226,-1.070564 c -0.0575,-0.04653 -0.12661,-0.06881 -0.19515,-0.0682 z m -20.79997,0.0052 c -0.16891,0 -0.3059,0.137022 -0.3059,0.306081 0,0.0019 4.31e-4,0.0039 4.31e-4,0.0059 h -4.31e-4 v 1.35323 c 0,0.765313 0.6226,1.388042 1.38777,1.388042 h 1.17705 c 4.23e-4,0 4.23e-4,6.4e-5 8.47e-4,6.4e-5 0.16892,0 0.3059,-0.136848 0.3059,-0.305907 -5e-5,-0.168769 -0.13698,-0.305722 -0.3059,-0.305722 h -6e-5 -1.17803 c -0.42798,0 -0.77615,-0.348519 -0.77615,-0.776509 V 12.74642 h -8.47e-4 c 1.2e-4,-0.0021 8.47e-4,-0.004 8.47e-4,-0.0059 0,-0.169058 -0.13681,-0.30608 -0.30573,-0.30608 z m 3.0746,0 c -0.16891,0 -0.30599,0.137022 -0.30599,0.306081 0,0.0019 4.23e-4,0.004 4.23e-4,0.0059 h -4.23e-4 v 1.35323 c 0,0.765313 0.62264,1.388042 1.38795,1.388042 h 1.17687 c 4.23e-4,0 8.47e-4,6.4e-5 8.47e-4,6.4e-5 0.16891,0 0.305719,-0.136848 0.305719,-0.305907 -8e-5,-0.168679 -0.13668,-0.305577 -0.30555,-0.305722 h -1.17802 c -0.42806,0 -0.776149,-0.348519 -0.776149,-0.776509 V 12.74642 h -8.47e-4 c 1.3e-4,-0.0021 8.47e-4,-0.004 8.47e-4,-0.0059 0,-0.169058 -0.136851,-0.30608 -0.305901,-0.30608 z m 4.77637,0 c -0.16891,0 -0.30582,0.137022 -0.30582,0.306081 0,0.0019 4.23e-4,0.004 4.23e-4,0.0059 h -4.23e-4 v 1.353325 c 0,0.765309 0.62263,1.387947 1.38787,1.387947 h 1.04715 c 0.765309,0 1.38777,-0.622638 1.38777,-1.387947 V 12.74642 h -4.24e-4 c 1.1e-4,-0.0021 4.24e-4,-0.004 4.24e-4,-0.0059 h 8e-5 c 0,-0.169058 -0.136911,-0.30608 -0.305821,-0.30608 -0.168899,0 -0.305899,0.137022 -0.305899,0.30608 0,0.0019 4.23e-4,0.004 4.23e-4,0.0059 h -4.23e-4 v 1.353326 c 0,0.427986 -0.348151,0.776414 -0.77615,0.776414 h -1.04703 c -0.42798,0 -0.77633,-0.348428 -0.77633,-0.776414 V 12.74642 h -4.24e-4 c 0,-0.0021 4.24e-4,-0.004 4.24e-4,-0.0059 0,-0.169058 -0.1369,-0.30608 -0.30581,-0.30608 z m 4.45542,0 c -0.16905,0 -0.30599,0.137022 -0.30599,0.306081 v 4.77e-4 2.440447 5.02e-4 c 0,0.168911 0.13694,0.30617 0.30599,0.30617 0.16885,0 0.30567,-0.137083 0.30582,-0.305993 v -0.763805 h 2.04435 c 0.2105,0 0.51627,0.148091 0.51627,0.380062 v 0.382462 9.53e-4 c 0,0.168917 0.13691,0.306082 0.30582,0.306082 0.16891,0 0.30567,-0.136987 0.305809,-0.305904 v -0.383799 c 0,-0.267092 -0.0945,-0.525434 -0.321919,-0.663616 0.19109,-0.148369 0.3221,-0.431012 0.3221,-0.708131 0,-0.583989 -0.40787,-0.991687 -0.991861,-0.991687 h -2.485849 z m 7.43013,8.6e-5 c -2.91e-4,0 -4.24e-4,2.44e-4 -4.24e-4,2.44e-4 h -1.94793 c -0.76517,0 -1.38768,0.622443 -1.38768,1.387688 v 0.27741 c 0,0.765313 0.62258,1.387953 1.38768,1.387953 h 1.94731 c 2.91e-4,0 8.47e-4,6.4e-5 8.47e-4,6.4e-5 0.16891,0 0.30581,-0.13685 0.30581,-0.305903 0,-0.168842 -0.13698,-0.305812 -0.30589,-0.305813 v -8.7e-5 h -1.94847 c -0.37064,0 -0.68085,-0.261515 -0.75745,-0.609396 h 2.39735 c 4.23e-4,0 8.47e-4,2.42e-4 8.73e-4,2.42e-4 0.16884,0 0.30572,-0.136941 0.30572,-0.305992 0,-0.168911 -0.13688,-0.305813 -0.30572,-0.305813 h -2.91e-4 -2.39834 c 0.0766,-0.34795 0.38682,-0.609043 0.75746,-0.609043 h 1.94793 4.23e-4 c 0.16891,0 0.30573,-0.136886 0.30573,-0.305728 0,-0.169056 -0.13682,-0.306076 -0.30573,-0.306076 z M 45.6198,13.046243 h 2.180401 c 0.142089,0 0.38024,0.04932 0.38024,0.380153 0,0.209571 -0.170601,0.380149 -0.38024,0.380149 H 45.6198 Z m -6.078229,1.774245 c -0.20243,0 -0.3668,0.164362 -0.3668,0.366794 0,0.202797 0.16437,0.366888 0.3668,0.366888 0.20258,0 0.3668,-0.164091 0.3668,-0.366888 0,-0.202432 -0.16415,-0.366794 -0.3668,-0.366794 z"
         style="fill:#fcfcfc;fill-opacity:1;stroke-width:0.623774" />
      <path
         style="color:#000000;display:inline;overflow:visible;visibility:visible;opacity:1;fill:#fcfcfc;fill-opacity:1;fill-rule:nonzero;stroke:none;stroke-width:0.354042;stroke-linecap:square;stroke-linejoin:miter;stroke-miterlimit:4;stroke-dasharray:none;stroke-opacity:1;marker:none;enable-background:accumulate"
         d="m 44.835071,-0.27699777 c 0.0174,0.3666101 0.0701,0.7333316 0.0256,1.0999414 l -1.81625,-0.7418752 c 0.23119,0.2524059 0.43673,0.5050123 0.58984,0.7575312 -2.02558,0.082535 -3.71636,1.60289787 -3.9996,3.62662147 -0.20179,0.04138 -0.4617,0.05212 -1.04551,-0.03445 0.127,3.642657 3.248429,4.830253 5.21434,4.832713 1.88749,-0.04428 3.75744,-1.43696 4.13736,-3.422526 0.32519,0.132856 0.66996,0.201522 1.0178,0.202863 1.59837,0 2.8941,-1.392986 2.89411,-3.1111828 0,-1.7184868 -1.29573,-3.11136267 -2.89411,-3.11136267 -1.13257,0 -2.15932,0.7119707 -2.62948,1.81723577 L 44.83508,-0.27758437 Z m -6.56878,3.33909957 c -0.008,0 -0.0163,0 -0.0241,0.00891 -0.12974,0.034446 -0.17506,0.2891107 -0.10115,0.56896 0.0739,0.2801633 0.23896,0.4793593 0.36874,0.4451163 0.12977,-0.03333 0.17509,-0.288998 0.10122,-0.5690493 -0.0687,-0.2603905 -0.2177,-0.4543533 -0.34465,-0.44865 z"
         id="path4136-4-7"
         inkscape:connector-curvature="0"
         sodipodi:nodetypes="cccccccccsscccccccccc" />
    </g>
  </g>
</svg>
