<?xml version="1.0" encoding="UTF-8" standalone="no"?>
<svg
   xmlns:dc="http://purl.org/dc/elements/1.1/"
   xmlns:cc="http://creativecommons.org/ns#"
   xmlns:rdf="http://www.w3.org/1999/02/22-rdf-syntax-ns#"
   xmlns:svg="http://www.w3.org/2000/svg"
   xmlns="http://www.w3.org/2000/svg"
   xmlns:sodipodi="http://sodipodi.sourceforge.net/DTD/sodipodi-0.dtd"
   xmlns:inkscape="http://www.inkscape.org/namespaces/inkscape"
   sodipodi:docname="logo.svg"
   inkscape:version="1.0 (4035a4fb49, 2020-05-01)"
   id="svg987"
   version="1.1"
   viewBox="0 0 218 41"
   height="41mm"
   width="218mm">
  <defs
     id="defs981" />
  <sodipodi:namedview
     inkscape:document-rotation="0"
     inkscape:window-maximized="1"
     inkscape:window-y="0"
     inkscape:window-x="1920"
     inkscape:window-height="1051"
     inkscape:window-width="1920"
     inkscape:showpageshadow="false"
     showgrid="false"
     inkscape:current-layer="layer1"
     inkscape:document-units="mm"
     inkscape:cy="698.86191"
     inkscape:cx="323.78549"
     inkscape:zoom="0.49497475"
     inkscape:pageshadow="2"
     inkscape:pageopacity="0.0"
     borderopacity="1.0"
     bordercolor="#666666"
     pagecolor="#ffffff"
     id="base" />
  <metadata
     id="metadata984">
    <rdf:RDF>
      <cc:Work
         rdf:about="">
        <dc:format>image/svg+xml</dc:format>
        <dc:type
           rdf:resource="http://purl.org/dc/dcmitype/StillImage" />
        <dc:title></dc:title>
      </cc:Work>
    </rdf:RDF>
  </metadata>
  <g
     transform="translate(0,-87)"
     id="layer1"
     inkscape:groupmode="layer"
     inkscape:label="Capa 1">
    <g
       transform="translate(-39.499774,-86.576077)"
       id="g834">
      <path
         style="fill:#002c4f;fill-opacity:1;stroke-width:0.623773"
         d="m 225.7015,181.00717 c -0.77069,0.008 -1.53201,0.34511 -2.05376,0.99105 -0.92941,1.1484 -0.75163,2.83259 0.39548,3.76267 l 10.19332,8.25166 -11.16258,9.0356 c -1.14834,0.9282 -1.32632,2.61396 -0.39627,3.7611 0.52897,0.65432 1.30052,0.99106 2.08023,0.99106 0.59133,0 1.18498,-0.19418 1.68086,-0.594 l 12.53512,-10.14895 12.53358,10.14895 c 0.49526,0.40047 1.09075,0.594 1.68084,0.594 0.78033,0 1.5527,-0.33797 2.08102,-0.99106 0.92879,-1.14714 0.74962,-2.8329 -0.39627,-3.7611 l -11.16336,-9.0356 10.19331,-8.25166 c 1.14772,-0.93008 1.32491,-2.61427 0.39549,-3.76267 -0.92755,-1.14712 -2.61193,-1.32472 -3.7603,-0.3947 l -11.56431,9.36182 -11.56585,-9.36182 c -0.50243,-0.4069 -1.10713,-0.60177 -1.70655,-0.59635 z m -181.890597,0.0459 c -1.47708,0 -2.67503,1.19824 -2.67503,2.67661 0,0.0164 0.005,0.0341 0.005,0.0522 h -0.005 v 11.83367 c 0,6.69247 5.44453,12.13809 12.13574,12.13809 h 10.29297 c 0.005,0 0.005,7.9e-4 0.009,7.9e-4 1.47709,0 2.67505,-1.1967 2.67505,-2.67506 -6.09e-4,-1.47585 -1.19796,-2.67346 -2.67505,-2.67346 h -7.68e-4 -10.301529 c -3.74264,0 -6.78724,-3.04771 -6.78724,-6.79037 v -11.83366 h -0.008 c 9.79e-4,-0.0189 0.008,-0.0354 0.008,-0.0522 0,-1.47837 -1.19638,-2.67661 -2.67347,-2.67661 z m 26.88658,0 c -1.47711,0 -2.675811,1.19824 -2.675811,2.67661 0,0.0165 0.005,0.0343 0.005,0.0522 h -0.005 v 11.83367 c 0,6.69247 5.44484,12.13809 12.13729,12.13809 h 10.291411 c 0.005,0 0.008,7.9e-4 0.009,7.9e-4 1.477082,0 2.673483,-1.1967 2.673483,-2.67506 -5.3e-4,-1.47505 -1.195301,-2.67219 -2.671911,-2.67346 H 80.159401 c -3.743269,0 -6.78724,-3.04771 -6.78724,-6.79037 v -11.83366 h -0.008 c 0.0011,-0.0189 0.008,-0.0354 0.008,-0.0522 0,-1.47837 -1.196689,-2.67661 -2.675027,-2.67661 z m 41.768197,0 c -1.4771,0 -2.67426,1.19824 -2.67426,2.67661 0,0.0164 0.005,0.0343 0.005,0.0522 h -0.005 v 11.83447 c 0,6.69247 5.4447,12.13729 12.13653,12.13729 h 9.15709 c 6.69244,0 12.13575,-5.44482 12.13575,-12.13729 v -11.83447 h -0.005 c 0.001,-0.0189 0.005,-0.0354 0.005,-0.0522 h 7.9e-4 c 0,-1.47837 -1.19718,-2.67661 -2.67426,-2.67661 -1.47708,0 -2.67503,1.19824 -2.67503,2.67661 0,0.0164 0.005,0.0343 0.005,0.0522 h -0.005 v 11.83447 c 0,3.74266 -3.04459,6.78957 -6.78723,6.78957 h -9.15634 c -3.74262,0 -6.78878,-3.04691 -6.78878,-6.78957 v -11.83447 h -0.005 c 0,-0.0189 0.005,-0.0354 0.005,-0.0522 0,-1.47837 -1.19719,-2.67661 -2.67426,-2.67661 z m 38.9616,0 c -1.47833,0 -2.6758,1.19824 -2.6758,2.67661 v 0.005 21.3411 0.005 c 0,1.4771 1.19747,2.67739 2.6758,2.67739 1.47647,0 2.673,-1.19874 2.67427,-2.67582 v -6.67903 h 17.87741 c 1.84076,0 4.5147,1.29503 4.5147,3.32355 v 3.34454 0.009 c 0,1.47714 1.19717,2.67662 2.67425,2.67662 1.47708,0 2.67301,-1.19793 2.67426,-2.67505 v -3.35623 c 0,-2.33565 -0.82663,-4.5948 -2.81517,-5.80317 1.67107,-1.29744 2.81673,-3.76909 2.81673,-6.19243 0,-5.10684 -3.56678,-8.67206 -8.67362,-8.67206 h -21.73816 z m 64.97466,7.9e-4 c -0.003,0 -0.005,0.003 -0.005,0.003 h -17.03427 c -6.69119,0 -12.13496,5.44312 -12.13496,12.135 v 2.42589 c 0,6.69245 5.44438,12.1373 12.13496,12.1373 h 17.02883 c 0.003,0 0.008,7.9e-4 0.009,7.9e-4 1.47711,0 2.67427,-1.19672 2.67427,-2.67507 -7.9e-4,-1.47648 -1.19795,-2.67422 -2.67503,-2.67425 v -7.9e-4 h -17.03893 c -3.24114,0 -5.95382,-2.28688 -6.62377,-5.32902 h 20.9643 c 0.005,0 0.008,0.003 0.012,0.003 1.47648,0 2.67346,-1.1975 2.67346,-2.67582 0,-1.47708 -1.19698,-2.67426 -2.67346,-2.67426 h -0.002 -20.97285 c 0.6701,-3.04271 3.38277,-5.3259 6.62388,-5.3259 h 17.03426 0.005 c 1.47708,0 2.67348,-1.19703 2.67348,-2.67351 0,-1.47836 -1.1964,-2.67656 -2.67348,-2.67656 z m -62.29962,5.34928 h 19.06701 c 1.24255,0 3.32511,0.43129 3.32511,3.32435 0,1.83265 -1.49183,3.32432 -3.32511,3.32432 h -19.06701 z"
         id="path2"
         inkscape:connector-curvature="0"
         sodipodi:nodetypes="ccccccscccsccccccccccsccsssscscssccscccsccssssccssccsccssccssssccccssccssssccsscsccssccsscsscscssccccsssssscccscssssccscsscccssscc" />
      <path
         style="fill:#00bfad;fill-opacity:1;stroke-width:0.623773"
         d="m 100.87412,175.66567 c -1.47708,0 -2.67347,1.19701 -2.67347,2.67346 v 0.003 17.76141 0.005 c 0,1.47582 1.19639,2.67424 2.67347,2.67424 1.4771,0 2.67583,-1.19842 2.67583,-2.67424 0,-0.002 -0.002,-0.003 -0.002,-0.005 v -17.76141 c 0,-0.002 0.002,-0.002 0.002,-0.003 0,-1.47645 -1.19873,-2.67346 -2.67583,-2.67346 z m 0.0755,26.2528 c -1.77027,0 -3.20755,1.4373 -3.20755,3.20754 0,1.7734 1.43728,3.20833 3.20755,3.20833 1.77151,0 3.20753,-1.43493 3.20753,-3.20833 0,-1.77024 -1.43541,-3.20754 -3.20753,-3.20754 z"
         id="path2-3"
         inkscape:connector-curvature="0"
         sodipodi:nodetypes="ssccssssssssssss" />
    </g>
  </g>
</svg>
