<?xml version="1.0" encoding="UTF-8" standalone="no"?>
<svg
   xmlns:dc="http://purl.org/dc/elements/1.1/"
   xmlns:cc="http://creativecommons.org/ns#"
   xmlns:rdf="http://www.w3.org/1999/02/22-rdf-syntax-ns#"
   xmlns:svg="http://www.w3.org/2000/svg"
   xmlns="http://www.w3.org/2000/svg"
   xmlns:sodipodi="http://sodipodi.sourceforge.net/DTD/sodipodi-0.dtd"
   xmlns:inkscape="http://www.inkscape.org/namespaces/inkscape"
   width="110"
   height="110"
   viewBox="0 0 29.104166 29.104167"
   version="1.1"
   id="svg995"
   inkscape:version="1.0 (4035a4f, 2020-05-01)"
   sodipodi:docname="golf.svg">
  <defs
     id="defs989" />
  <sodipodi:namedview
     id="base"
     pagecolor="#ffffff"
     bordercolor="#666666"
     borderopacity="1.0"
     inkscape:pageopacity="0.0"
     inkscape:pageshadow="2"
     inkscape:zoom="1.4"
     inkscape:cx="-38.247734"
     inkscape:cy="151.95624"
     inkscape:document-units="px"
     inkscape:current-layer="layer1"
     inkscape:document-rotation="0"
     showgrid="false"
     units="px"
     inkscape:showpageshadow="false"
     inkscape:window-width="1272"
     inkscape:window-height="856"
     inkscape:window-x="640"
     inkscape:window-y="159"
     inkscape:window-maximized="0" />
  <metadata
     id="metadata992">
    <rdf:RDF>
      <cc:Work
         rdf:about="">
        <dc:format>image/svg+xml</dc:format>
        <dc:type
           rdf:resource="http://purl.org/dc/dcmitype/StillImage" />
        <dc:title />
      </cc:Work>
    </rdf:RDF>
  </metadata>
  <g
     inkscape:label="Capa 1"
     inkscape:groupmode="layer"
     id="layer1">
    <g
       transform="translate(-26.458333,-0.94494045)"
       id="g854">
      <rect
         style="fill:#fcfcfc;fill-opacity:1;stroke:none;stroke-width:0.264583;stroke-linecap:round;stroke-linejoin:round;stroke-opacity:0.051031"
         id="rect939-3-3"
         width="29.104164"
         height="29.104166"
         x="26.458334"
         y="0.94494069" />
      <path
         id="rect1084-9"
         style="fill:#d3d3d3;fill-opacity:1;stroke:none;stroke-width:0.264583;stroke-linecap:round;stroke-linejoin:round;stroke-opacity:0.051031"
         d="m 35.901506,4.7647207 c -1.75895,0 -3.175,1.41605 -3.175,3.175 V 19.802561 c 0,1.758949 1.41605,3.174999 3.175,3.174999 h 3.73311 l 4.98367,4.774903 V 22.97756 h 1.72548 v -1.802989 h -9.68106 c -1.18223,0 -2.13372,-0.785694 -2.13372,-1.761649 V 8.3288437 c 0,-0.975958 0.95149,-1.761649 2.13372,-1.761649 h 10.33993 c 0.59112,0 1.12434,0.1962811 1.50999,0.5146961 0.38565,0.3184191 0.62373,0.7589739 0.62373,1.2469529 V 17.982 c -1.17817,0.68853 -1.7042,0.705532 -3.12952,0.0057 l -0.0667,-9.9306602 h -0.88522 c -1.69669,0 -2.97862,0.00119 -3.99511,0.08527 -1.01649,0.0841 -1.80939,0.2357671 -2.45928,0.7059002 -0.6499,0.470127 -0.97267,1.228513 -1.09605,2.027782 -0.1234,0.799269 -0.11576,1.724821 -0.11576,2.92902 0,1.221882 -0.009,2.152134 0.11369,2.955377 0.1228,0.803243 0.44991,1.569027 1.10691,2.033984 0.657,0.464958 1.45298,0.606422 2.47737,0.684194 0.84288,0.06399 1.93382,0.06906 3.22667,0.06977 l 0.61288,-1.061952 1.06402,1.064535 h 0.0248 c 1.87963,1.2231 4.92425,0.175045 4.92425,-1.568897 V 7.9397207 c 0,-1.75895 -1.41605,-3.175 -3.175,-3.175 z m 8.26926,5.0921941 0.0527,7.8966752 c -1.17025,-0.0027 -2.30854,-4.76e-4 -3.00344,-0.05323 -0.90232,-0.06851 -1.38573,-0.224068 -1.58026,-0.361736 -0.19453,-0.137665 -0.29075,-0.280667 -0.37724,-0.84646 -0.0865,-0.565788 -0.092,-1.463545 -0.092,-2.687174 0,-1.204749 0.008,-2.093773 0.0946,-2.656684 0.0869,-0.562912 0.18558,-0.715682 0.38138,-0.857314 0.19578,-0.141631 0.67148,-0.2989791 1.56114,-0.3725862 0.68537,-0.0567 1.80803,-0.05726 2.96312,-0.0615 z" />
      <path
         d="m 35.079016,4.0031517 c -1.75895,0 -3.175,1.41605 -3.175,3.175 V 19.040992 c 0,1.758949 1.41605,3.174999 3.175,3.174999 h 3.73311 l 4.98367,4.774904 v -4.774904 h 1.72548 v -1.802989 h -9.68106 c -1.18223,0 -2.13372,-0.785694 -2.13372,-1.761649 V 7.5672747 c 0,-0.975958 0.95149,-1.761649 2.13372,-1.761649 h 10.33993 c 0.59112,0 1.12434,0.1962811 1.50999,0.5146961 0.38565,0.3184189 0.62373,0.7589739 0.62373,1.2469529 v 9.6531563 c -1.17817,0.68853 -1.7042,0.705532 -3.12952,0.0057 l -0.0667,-9.9306612 h -0.88522 c -1.69669,0 -2.97862,0.00119 -3.99511,0.08527 -1.01649,0.0841 -1.80939,0.2357681 -2.45928,0.7059012 -0.6499,0.470127 -0.97267,1.228513 -1.09605,2.027782 -0.1234,0.799269 -0.11576,1.724821 -0.11576,2.92902 0,1.221882 -0.009,2.152134 0.11369,2.955377 0.1228,0.803243 0.44991,1.569027 1.10691,2.033984 0.657,0.464958 1.45298,0.606422 2.47737,0.684194 0.84288,0.06399 1.93382,0.06906 3.22667,0.06977 l 0.61288,-1.061952 1.06402,1.064535 h 0.0248 c 1.87963,1.2231 4.92425,0.175045 4.92425,-1.568897 V 7.1781517 c 0,-1.75895 -1.41605,-3.175 -3.175,-3.175 z m 8.26926,5.0921941 0.0527,7.8966752 c -1.17025,-0.0027 -2.30854,-4.76e-4 -3.00344,-0.05323 -0.90232,-0.06851 -1.38573,-0.224068 -1.58026,-0.361736 -0.19453,-0.137665 -0.29075,-0.280667 -0.37724,-0.84646 -0.0865,-0.565788 -0.092,-1.463545 -0.092,-2.687174 0,-1.204749 0.008,-2.093773 0.0946,-2.656684 0.0869,-0.5629123 0.18558,-0.7156822 0.38138,-0.8573142 0.19578,-0.1416309 0.67148,-0.2989789 1.56114,-0.3725859 0.68537,-0.0567 1.80803,-0.05726 2.96312,-0.0615 z"
         style="fill:#f67400;fill-opacity:1;stroke:none;stroke-width:0.264583;stroke-linecap:round;stroke-linejoin:round;stroke-opacity:0.051031"
         id="rect1084" />
    </g>
  </g>
</svg>
